<svg width="166" height="50" viewBox="0 0 166 50" fill="none" xmlns="http://www.w3.org/2000/svg">
<g opacity="0.4">
<path d="M3.4043 29H1.5293L1.54102 27.5234H3.4043C3.83008 27.5234 4.18945 27.4258 4.48242 27.2305C4.77539 27.0312 4.99805 26.7383 5.15039 26.3516C5.30273 25.9609 5.37891 25.4863 5.37891 24.9277V24.5352C5.37891 24.1133 5.33594 23.7422 5.25 23.4219C5.16406 23.0977 5.03711 22.8262 4.86914 22.6074C4.70117 22.3887 4.49219 22.2246 4.24219 22.1152C3.99609 22.0059 3.71289 21.9512 3.39258 21.9512H1.49414V20.4688H3.39258C3.9707 20.4688 4.49805 20.5664 4.97461 20.7617C5.45508 20.957 5.86914 21.2363 6.2168 21.5996C6.56836 21.9629 6.83984 22.3926 7.03125 22.8887C7.22266 23.3848 7.31836 23.9375 7.31836 24.5469V24.9277C7.31836 25.5332 7.22266 26.0859 7.03125 26.5859C6.83984 27.082 6.56836 27.5117 6.2168 27.875C5.86914 28.2344 5.45703 28.5117 4.98047 28.707C4.50391 28.9023 3.97852 29 3.4043 29ZM2.61328 20.4688V29H0.703125V20.4688H2.61328ZM11.3789 29.1172C10.875 29.1172 10.4238 29.0371 10.0254 28.877C9.62695 28.7168 9.28906 28.4961 9.01172 28.2148C8.73828 27.9297 8.5293 27.6016 8.38477 27.2305C8.24023 26.8594 8.16797 26.4629 8.16797 26.041V25.8184C8.16797 25.3457 8.23438 24.9102 8.36719 24.5117C8.5 24.1133 8.69336 23.7676 8.94727 23.4746C9.20508 23.1777 9.52148 22.9492 9.89648 22.7891C10.2715 22.625 10.6992 22.543 11.1797 22.543C11.6289 22.543 12.0293 22.6172 12.3809 22.7656C12.7324 22.9102 13.0293 23.1191 13.2715 23.3926C13.5137 23.6621 13.6973 23.9883 13.8223 24.3711C13.9512 24.75 14.0156 25.1758 14.0156 25.6484V26.3984H8.90625V25.2207H12.2227V25.0801C12.2227 24.8574 12.1816 24.6621 12.0996 24.4941C12.0215 24.3262 11.9043 24.1973 11.748 24.1074C11.5957 24.0137 11.4023 23.9668 11.168 23.9668C10.9453 23.9668 10.7598 24.0137 10.6113 24.1074C10.4629 24.2012 10.3438 24.334 10.2539 24.5059C10.168 24.6738 10.1055 24.8711 10.0664 25.0977C10.0273 25.3203 10.0078 25.5605 10.0078 25.8184V26.041C10.0078 26.2871 10.041 26.5117 10.1074 26.7148C10.1738 26.918 10.2715 27.0918 10.4004 27.2363C10.5293 27.3809 10.6855 27.4941 10.8691 27.5762C11.0527 27.6582 11.2617 27.6992 11.4961 27.6992C11.7852 27.6992 12.0605 27.6445 12.3223 27.5352C12.584 27.4219 12.8105 27.2461 13.002 27.0078L13.8574 27.9863C13.7285 28.1738 13.5469 28.3555 13.3125 28.5312C13.082 28.7031 12.8047 28.8438 12.4805 28.9531C12.1562 29.0625 11.7891 29.1172 11.3789 29.1172ZM18.2812 27.2363C18.2812 27.1191 18.2441 27.0156 18.1699 26.9258C18.0996 26.8359 17.9707 26.7539 17.7832 26.6797C17.5996 26.6055 17.3398 26.5312 17.0039 26.457C16.6875 26.3906 16.3926 26.3047 16.1191 26.1992C15.8457 26.0898 15.6074 25.959 15.4043 25.8066C15.2012 25.6504 15.043 25.4668 14.9297 25.2559C14.8164 25.041 14.7598 24.7969 14.7598 24.5234C14.7598 24.2578 14.8164 24.0059 14.9297 23.7676C15.0469 23.5293 15.2148 23.3184 15.4336 23.1348C15.6562 22.9512 15.9258 22.8066 16.2422 22.7012C16.5625 22.5957 16.9258 22.543 17.332 22.543C17.8906 22.543 18.373 22.6309 18.7793 22.8066C19.1855 22.9785 19.498 23.2207 19.7168 23.5332C19.9355 23.8418 20.0449 24.1953 20.0449 24.5938H18.2168C18.2168 24.4297 18.1855 24.2871 18.123 24.166C18.0605 24.0449 17.9648 23.9512 17.8359 23.8848C17.707 23.8145 17.5371 23.7793 17.3262 23.7793C17.1621 23.7793 17.0176 23.8086 16.8926 23.8672C16.7715 23.9219 16.6758 23.998 16.6055 24.0957C16.5391 24.1934 16.5059 24.3066 16.5059 24.4355C16.5059 24.5254 16.5254 24.6074 16.5645 24.6816C16.6074 24.752 16.6719 24.8184 16.7578 24.8809C16.8477 24.9395 16.9629 24.9922 17.1035 25.0391C17.248 25.0859 17.4238 25.1309 17.6309 25.1738C18.0723 25.2559 18.4746 25.3711 18.8379 25.5195C19.2051 25.668 19.498 25.873 19.7168 26.1348C19.9395 26.3965 20.0508 26.7422 20.0508 27.1719C20.0508 27.4531 19.9863 27.7109 19.8574 27.9453C19.7324 28.1797 19.5508 28.3848 19.3125 28.5605C19.0742 28.7363 18.7891 28.873 18.457 28.9707C18.125 29.0684 17.75 29.1172 17.332 29.1172C16.7344 29.1172 16.2285 29.0098 15.8145 28.7949C15.4004 28.5801 15.0879 28.3105 14.877 27.9863C14.6699 27.6582 14.5664 27.3223 14.5664 26.9785H16.2832C16.291 27.1895 16.3438 27.3613 16.4414 27.4941C16.543 27.627 16.6738 27.7246 16.834 27.7871C16.9941 27.8457 17.1738 27.875 17.373 27.875C17.5723 27.875 17.7383 27.8477 17.8711 27.793C18.0039 27.7383 18.1055 27.6641 18.1758 27.5703C18.2461 27.4727 18.2812 27.3613 18.2812 27.2363ZM22.998 22.6602V29H21.1641V22.6602H22.998ZM21.0527 21.0195C21.0527 20.7539 21.1465 20.5371 21.334 20.3691C21.5215 20.1973 21.7676 20.1113 22.0723 20.1113C22.377 20.1113 22.623 20.1973 22.8105 20.3691C23.002 20.5371 23.0977 20.7539 23.0977 21.0195C23.0977 21.2812 23.002 21.498 22.8105 21.6699C22.623 21.8379 22.377 21.9219 22.0723 21.9219C21.7676 21.9219 21.5215 21.8379 21.334 21.6699C21.1465 21.498 21.0527 21.2812 21.0527 21.0195ZM28.3125 22.6602H29.9766V28.7715C29.9766 29.3535 29.8438 29.8477 29.5781 30.2539C29.3164 30.6602 28.9512 30.9688 28.4824 31.1797C28.0137 31.3906 27.4648 31.4961 26.8359 31.4961C26.5625 31.4961 26.2773 31.459 25.9805 31.3848C25.6836 31.3145 25.4043 31.207 25.1426 31.0625C24.8809 30.9219 24.6621 30.7422 24.4863 30.5234L25.2656 29.4453C25.4453 29.6484 25.6602 29.8125 25.9102 29.9375C26.1602 30.0664 26.4453 30.1309 26.7656 30.1309C27.0586 30.1309 27.3066 30.0781 27.5098 29.9727C27.7129 29.8672 27.8672 29.7129 27.9727 29.5098C28.082 29.3066 28.1367 29.0605 28.1367 28.7715V24.1426L28.3125 22.6602ZM24.0762 25.9062V25.7832C24.0762 25.3027 24.1348 24.8652 24.252 24.4707C24.3691 24.0723 24.5391 23.7305 24.7617 23.4453C24.9883 23.1562 25.2598 22.9336 25.5762 22.7773C25.8965 22.6211 26.2559 22.543 26.6543 22.543C27.084 22.543 27.4395 22.625 27.7207 22.7891C28.002 22.9492 28.2305 23.1758 28.4062 23.4688C28.582 23.7578 28.7207 24.0996 28.8223 24.4941C28.9238 24.8848 29.0059 25.3086 29.0684 25.7656V25.9766C29.0059 26.4141 28.916 26.8223 28.7988 27.2012C28.6816 27.5801 28.5293 27.9141 28.3418 28.2031C28.1543 28.4883 27.9199 28.7129 27.6387 28.877C27.3613 29.0371 27.0293 29.1172 26.6426 29.1172C26.248 29.1172 25.8926 29.0371 25.5762 28.877C25.2598 28.7168 24.9883 28.4922 24.7617 28.2031C24.5391 27.9141 24.3691 27.5742 24.252 27.1836C24.1348 26.793 24.0762 26.3672 24.0762 25.9062ZM25.9043 25.7832V25.9062C25.9043 26.1562 25.9277 26.3887 25.9746 26.6035C26.0254 26.8184 26.0996 27.0078 26.1973 27.1719C26.2988 27.3359 26.4238 27.4648 26.5723 27.5586C26.7246 27.6484 26.9023 27.6934 27.1055 27.6934C27.4023 27.6934 27.6426 27.6309 27.8262 27.5059C28.0137 27.377 28.1504 27.1992 28.2363 26.9727C28.3262 26.7461 28.373 26.4824 28.377 26.1816V25.5664C28.377 25.3164 28.3516 25.0918 28.3008 24.8926C28.25 24.6934 28.1738 24.5254 28.0723 24.3887C27.9746 24.252 27.8457 24.1484 27.6855 24.0781C27.5293 24.0039 27.3398 23.9668 27.1172 23.9668C26.918 23.9668 26.7422 24.0137 26.5898 24.1074C26.4375 24.1973 26.3105 24.3242 26.209 24.4883C26.1074 24.6523 26.0312 24.8457 25.9805 25.0684C25.9297 25.2871 25.9043 25.5254 25.9043 25.7832ZM32.9883 24.0137V29H31.1543V22.6602H32.877L32.9883 24.0137ZM32.748 25.6074L32.291 25.6191C32.291 25.1426 32.3496 24.7148 32.4668 24.3359C32.584 23.957 32.75 23.6348 32.9648 23.3691C33.1836 23.0996 33.4434 22.8945 33.7441 22.7539C34.0488 22.6133 34.3848 22.543 34.752 22.543C35.0488 22.543 35.3203 22.5859 35.5664 22.6719C35.8125 22.7578 36.0234 22.8965 36.1992 23.0879C36.3789 23.2754 36.5156 23.5254 36.6094 23.8379C36.7031 24.1465 36.75 24.5273 36.75 24.9805V29H34.9102V24.9746C34.9102 24.709 34.873 24.5039 34.7988 24.3594C34.7246 24.2148 34.6152 24.1133 34.4707 24.0547C34.3301 23.9961 34.1582 23.9668 33.9551 23.9668C33.7402 23.9668 33.5566 24.0098 33.4043 24.0957C33.252 24.1777 33.127 24.293 33.0293 24.4414C32.9316 24.5898 32.8594 24.7637 32.8125 24.9629C32.7695 25.1621 32.748 25.377 32.748 25.6074ZM40.9395 20H42.7676V27.4941L42.5801 29H40.9395V20ZM46.7227 25.7598V25.8828C46.7227 26.3633 46.6719 26.8008 46.5703 27.1953C46.4727 27.5898 46.3223 27.9316 46.1191 28.2207C45.916 28.5059 45.6602 28.7266 45.3516 28.8828C45.043 29.0391 44.6797 29.1172 44.2617 29.1172C43.875 29.1172 43.543 29.0371 43.2656 28.877C42.9883 28.7129 42.7559 28.4863 42.5684 28.1973C42.3809 27.9082 42.2285 27.5703 42.1113 27.1836C41.998 26.7969 41.9102 26.3809 41.8477 25.9355V25.7246C41.9102 25.2793 41.998 24.8633 42.1113 24.4766C42.2285 24.0898 42.3809 23.752 42.5684 23.4629C42.7559 23.1738 42.9863 22.9492 43.2598 22.7891C43.5371 22.625 43.8672 22.543 44.25 22.543C44.6719 22.543 45.0371 22.623 45.3457 22.7832C45.6582 22.9434 45.916 23.168 46.1191 23.457C46.3223 23.7422 46.4727 24.082 46.5703 24.4766C46.6719 24.8672 46.7227 25.2949 46.7227 25.7598ZM44.8945 25.8828V25.7598C44.8945 25.5176 44.877 25.2891 44.8418 25.0742C44.8105 24.8594 44.7539 24.6699 44.6719 24.5059C44.5938 24.3379 44.4824 24.207 44.3379 24.1133C44.1973 24.0156 44.0156 23.9668 43.793 23.9668C43.5742 23.9668 43.3887 24.0039 43.2363 24.0781C43.084 24.1523 42.9609 24.2578 42.8672 24.3945C42.7734 24.5273 42.7051 24.6895 42.6621 24.8809C42.6191 25.0723 42.5957 25.2852 42.5918 25.5195V26.1406C42.5957 26.4531 42.6367 26.7266 42.7148 26.9609C42.793 27.1953 42.9199 27.377 43.0957 27.5059C43.2715 27.6309 43.5078 27.6934 43.8047 27.6934C44.0312 27.6934 44.2148 27.6504 44.3555 27.5645C44.5 27.4746 44.6094 27.3496 44.6836 27.1895C44.7617 27.0293 44.8164 26.8379 44.8477 26.6152C44.8789 26.3926 44.8945 26.1484 44.8945 25.8828ZM49.5352 28.2676L51.1934 22.6602H53.1621L50.6133 29.9492C50.5586 30.1094 50.4844 30.2812 50.3906 30.4648C50.3008 30.6484 50.1777 30.8242 50.0215 30.9922C49.8691 31.1602 49.6738 31.2969 49.4355 31.4023C49.1973 31.5078 48.9043 31.5605 48.5566 31.5605C48.3809 31.5605 48.2441 31.5508 48.1465 31.5312C48.0527 31.5156 47.9277 31.4883 47.7715 31.4492L47.7656 30.1191C47.8164 30.1191 47.8613 30.1191 47.9004 30.1191C47.9434 30.123 47.9863 30.125 48.0293 30.125C48.248 30.125 48.4238 30.1016 48.5566 30.0547C48.6934 30.0078 48.7988 29.9375 48.873 29.8438C48.9512 29.7539 49.0137 29.6387 49.0605 29.498L49.5352 28.2676ZM48.9785 22.6602L50.291 27.1719L50.5137 29.1113L49.2773 29.1758L47.0098 22.6602H48.9785ZM55.5879 23.8789V31.4375H53.7598V22.6602H55.4648L55.5879 23.8789ZM59.543 25.7598V25.8828C59.543 26.3438 59.4902 26.7715 59.3848 27.166C59.2793 27.5566 59.1211 27.8984 58.9102 28.1914C58.7031 28.4844 58.4473 28.7129 58.1426 28.877C57.8379 29.0371 57.4844 29.1172 57.082 29.1172C56.6992 29.1172 56.3672 29.0371 56.0859 28.877C55.8086 28.7129 55.5742 28.4863 55.3828 28.1973C55.1953 27.9043 55.043 27.5703 54.9258 27.1953C54.8125 26.8164 54.7246 26.4121 54.6621 25.9824V25.7422C54.7246 25.2852 54.8145 24.8613 54.9316 24.4707C55.0488 24.0801 55.2012 23.7422 55.3887 23.457C55.5762 23.168 55.8086 22.9434 56.0859 22.7832C56.3633 22.623 56.6934 22.543 57.0762 22.543C57.4746 22.543 57.8281 22.6191 58.1367 22.7715C58.4453 22.9238 58.7031 23.1426 58.9102 23.4277C59.1211 23.709 59.2793 24.0469 59.3848 24.4414C59.4902 24.8359 59.543 25.2754 59.543 25.7598ZM57.709 25.8828V25.7598C57.709 25.502 57.6895 25.2656 57.6504 25.0508C57.6113 24.832 57.5488 24.6426 57.4629 24.4824C57.377 24.3184 57.2637 24.1914 57.123 24.1016C56.9824 24.0117 56.8105 23.9668 56.6074 23.9668C56.3887 23.9668 56.2031 24.002 56.0508 24.0723C55.8984 24.1426 55.7754 24.2461 55.6816 24.3828C55.5879 24.5156 55.5195 24.6797 55.4766 24.875C55.4375 25.0703 55.416 25.293 55.4121 25.543V26.1875C55.416 26.4805 55.457 26.7422 55.5352 26.9727C55.6172 27.1992 55.7441 27.377 55.916 27.5059C56.0918 27.6309 56.3262 27.6934 56.6191 27.6934C56.8262 27.6934 56.998 27.6484 57.1348 27.5586C57.2754 27.4648 57.3867 27.334 57.4688 27.166C57.5547 26.998 57.6152 26.8047 57.6504 26.5859C57.6895 26.3672 57.709 26.1328 57.709 25.8828ZM62.3496 24.1367V29H60.5215V22.6602H62.2383L62.3496 24.1367ZM64.2422 22.6133L64.2129 24.3184C64.1348 24.3066 64.0332 24.2969 63.9082 24.2891C63.7832 24.2773 63.6758 24.2715 63.5859 24.2715C63.3516 24.2715 63.1484 24.3008 62.9766 24.3594C62.8086 24.4141 62.668 24.4961 62.5547 24.6055C62.4453 24.7148 62.3633 24.8516 62.3086 25.0156C62.2539 25.1758 62.2266 25.3613 62.2266 25.5723L61.8809 25.4023C61.8809 24.9844 61.9219 24.6016 62.0039 24.2539C62.0859 23.9062 62.2051 23.6055 62.3613 23.3516C62.5176 23.0938 62.709 22.8945 62.9355 22.7539C63.1621 22.6133 63.4199 22.543 63.709 22.543C63.8027 22.543 63.8984 22.5488 63.9961 22.5605C64.0938 22.5723 64.1758 22.5898 64.2422 22.6133ZM64.5293 25.8945V25.7715C64.5293 25.3066 64.5957 24.8789 64.7285 24.4883C64.8613 24.0938 65.0566 23.752 65.3145 23.4629C65.5723 23.1738 65.8887 22.9492 66.2637 22.7891C66.6387 22.625 67.0684 22.543 67.5527 22.543C68.0449 22.543 68.4785 22.625 68.8535 22.7891C69.2324 22.9492 69.5508 23.1738 69.8086 23.4629C70.0664 23.752 70.2617 24.0938 70.3945 24.4883C70.5273 24.8789 70.5938 25.3066 70.5938 25.7715V25.8945C70.5938 26.3555 70.5273 26.7832 70.3945 27.1777C70.2617 27.5684 70.0664 27.9102 69.8086 28.2031C69.5508 28.4922 69.2344 28.7168 68.8594 28.877C68.4844 29.0371 68.0527 29.1172 67.5645 29.1172C67.0801 29.1172 66.6484 29.0371 66.2695 28.877C65.8906 28.7168 65.5723 28.4922 65.3145 28.2031C65.0566 27.9102 64.8613 27.5684 64.7285 27.1777C64.5957 26.7832 64.5293 26.3555 64.5293 25.8945ZM66.3633 25.7715V25.8945C66.3633 26.1445 66.3828 26.3789 66.4219 26.5977C66.4648 26.8164 66.5332 27.0078 66.627 27.1719C66.7207 27.3359 66.8438 27.4648 66.9961 27.5586C67.1523 27.6484 67.3418 27.6934 67.5645 27.6934C67.7871 27.6934 67.9746 27.6484 68.127 27.5586C68.2793 27.4648 68.4023 27.3359 68.4961 27.1719C68.5898 27.0078 68.6562 26.8164 68.6953 26.5977C68.7383 26.3789 68.7598 26.1445 68.7598 25.8945V25.7715C68.7598 25.5254 68.7383 25.2949 68.6953 25.0801C68.6562 24.8613 68.5898 24.668 68.4961 24.5C68.4023 24.332 68.2773 24.2012 68.1211 24.1074C67.9688 24.0137 67.7793 23.9668 67.5527 23.9668C67.334 23.9668 67.1484 24.0137 66.9961 24.1074C66.8438 24.2012 66.7207 24.332 66.627 24.5C66.5332 24.668 66.4648 24.8613 66.4219 25.0801C66.3828 25.2949 66.3633 25.5254 66.3633 25.7715ZM73.3887 24.1367V29H71.5605V22.6602H73.2773L73.3887 24.1367ZM75.2812 22.6133L75.252 24.3184C75.1738 24.3066 75.0723 24.2969 74.9473 24.2891C74.8223 24.2773 74.7148 24.2715 74.625 24.2715C74.3906 24.2715 74.1875 24.3008 74.0156 24.3594C73.8477 24.4141 73.707 24.4961 73.5938 24.6055C73.4844 24.7148 73.4023 24.8516 73.3477 25.0156C73.293 25.1758 73.2656 25.3613 73.2656 25.5723L72.9199 25.4023C72.9199 24.9844 72.9609 24.6016 73.043 24.2539C73.125 23.9062 73.2441 23.6055 73.4004 23.3516C73.5566 23.0938 73.748 22.8945 73.9746 22.7539C74.2012 22.6133 74.459 22.543 74.748 22.543C74.8418 22.543 74.9375 22.5488 75.0352 22.5605C75.1328 22.5723 75.2148 22.5898 75.2812 22.6133ZM75.5684 25.8945V25.7715C75.5684 25.3066 75.6348 24.8789 75.7676 24.4883C75.9004 24.0938 76.0957 23.752 76.3535 23.4629C76.6113 23.1738 76.9277 22.9492 77.3027 22.7891C77.6777 22.625 78.1074 22.543 78.5918 22.543C79.084 22.543 79.5176 22.625 79.8926 22.7891C80.2715 22.9492 80.5898 23.1738 80.8477 23.4629C81.1055 23.752 81.3008 24.0938 81.4336 24.4883C81.5664 24.8789 81.6328 25.3066 81.6328 25.7715V25.8945C81.6328 26.3555 81.5664 26.7832 81.4336 27.1777C81.3008 27.5684 81.1055 27.9102 80.8477 28.2031C80.5898 28.4922 80.2734 28.7168 79.8984 28.877C79.5234 29.0371 79.0918 29.1172 78.6035 29.1172C78.1191 29.1172 77.6875 29.0371 77.3086 28.877C76.9297 28.7168 76.6113 28.4922 76.3535 28.2031C76.0957 27.9102 75.9004 27.5684 75.7676 27.1777C75.6348 26.7832 75.5684 26.3555 75.5684 25.8945ZM77.4023 25.7715V25.8945C77.4023 26.1445 77.4219 26.3789 77.4609 26.5977C77.5039 26.8164 77.5723 27.0078 77.666 27.1719C77.7598 27.3359 77.8828 27.4648 78.0352 27.5586C78.1914 27.6484 78.3809 27.6934 78.6035 27.6934C78.8262 27.6934 79.0137 27.6484 79.166 27.5586C79.3184 27.4648 79.4414 27.3359 79.5352 27.1719C79.6289 27.0078 79.6953 26.8164 79.7344 26.5977C79.7773 26.3789 79.7988 26.1445 79.7988 25.8945V25.7715C79.7988 25.5254 79.7773 25.2949 79.7344 25.0801C79.6953 24.8613 79.6289 24.668 79.5352 24.5C79.4414 24.332 79.3164 24.2012 79.1602 24.1074C79.0078 24.0137 78.8184 23.9668 78.5918 23.9668C78.373 23.9668 78.1875 24.0137 78.0352 24.1074C77.8828 24.2012 77.7598 24.332 77.666 24.5C77.5723 24.668 77.5039 24.8613 77.4609 25.0801C77.4219 25.2949 77.4023 25.5254 77.4023 25.7715ZM84.4336 19.9941V29H82.5996V19.9941H84.4336ZM88.459 22.6602L85.6992 25.8477L84.2402 27.3125L83.5078 26.0762L84.6914 24.5469L86.2559 22.6602H88.459ZM86.5254 29L84.7383 26.0879L86.0508 25.0625L88.623 29H86.5254ZM90.9258 19.9941V29H89.0918V19.9941H90.9258ZM94.9512 22.6602L92.1914 25.8477L90.7324 27.3125L90 26.0762L91.1836 24.5469L92.748 22.6602H94.9512ZM93.0176 29L91.2305 26.0879L92.543 25.0625L95.1152 29H93.0176Z" fill="white"/>
<path d="M122.725 39.7934C122.365 39.2673 122.366 39.1645 122.725 38.6079C123.134 37.974 123.544 37.3394 123.991 36.6467C123.77 36.6254 123.622 36.612 123.475 36.5978C119.643 36.2341 115.811 35.871 111.98 35.5073C110.84 35.3988 110.433 34.9096 110.541 33.7787C111.286 26.0184 112.015 18.2566 112.791 10.4999C112.899 9.42427 113.23 8.36923 113.473 7.30782C113.981 5.08501 114.503 2.86505 115.01 0.642249C115.085 0.313968 115.229 0.0672232 115.576 0.00979189C115.927 -0.0476394 116.142 0.154434 116.315 0.435919C117.807 2.87001 119.304 5.30127 120.8 7.73395C120.872 7.85235 120.949 7.96793 121.045 8.11753C121.188 8.05868 121.326 8.00621 121.461 7.94594C124.316 6.66544 127.17 5.38281 130.024 4.1023C130.508 3.88534 130.925 3.99878 131.022 4.41924C131.07 4.62911 131.009 4.895 130.918 5.10062C129.668 7.91263 128.41 10.7211 127.138 13.5232C127.014 13.7961 127.054 13.9309 127.273 14.1209C129.81 16.3167 132.333 18.5275 134.869 20.7248C135.179 20.9942 135.333 21.2743 135.326 21.7025C135.274 24.679 135.246 27.6569 135.212 30.6334C135.189 32.6223 135.164 34.6111 135.15 36.6006C135.144 37.4451 135.043 37.5812 134.216 37.7393C130.731 38.4072 127.246 39.0751 123.761 39.7459C123.641 39.7686 123.527 39.8203 123.41 39.8579C123.182 39.8359 122.953 39.8147 122.725 39.7927V39.7934ZM126.311 14.9958C121.629 21.4253 116.986 27.8002 112.316 34.2126C112.461 34.2367 112.545 34.2552 112.629 34.2637C116.588 34.6402 120.548 35.0131 124.507 35.3974C124.752 35.4215 124.87 35.335 124.992 35.145C127.876 30.6675 130.766 26.1935 133.654 21.7188C133.707 21.6373 133.747 21.5472 133.803 21.4437C131.306 19.2947 128.824 17.1584 126.311 14.9958H126.311ZM114.29 10.736C115.314 13.8167 116.322 16.8499 117.343 19.9221C119.978 17.9291 122.564 15.9743 125.158 14.0124C125.118 13.9528 125.097 13.9053 125.062 13.8727C123.616 12.5171 122.171 11.1593 120.713 9.81566C120.614 9.72491 120.412 9.69299 120.268 9.71214C119.715 9.78729 119.165 9.89507 118.613 9.99008C117.185 10.2361 115.756 10.4821 114.29 10.7353V10.736ZM133.99 23.7778C133.965 23.7665 133.939 23.7544 133.913 23.7431C130.804 28.5532 127.695 33.3639 124.552 38.2271C124.701 38.2123 124.775 38.2115 124.847 38.1974C127.731 37.6422 130.614 37.0821 133.499 36.5347C133.761 36.4851 133.847 36.3893 133.85 36.1185C133.872 33.5731 133.911 31.0284 133.942 28.483C133.962 26.9146 133.975 25.3462 133.99 23.7778ZM112.009 32.2933C112.031 32.3039 112.053 32.3146 112.075 32.3252C115.678 27.3691 119.281 22.4123 122.885 17.4561C122.713 17.4824 122.602 17.5625 122.493 17.6455C120.862 18.8834 119.232 20.1221 117.601 21.3594C116.978 21.8316 116.557 21.7039 116.313 20.9673C115.538 18.6232 114.765 16.2792 113.991 13.9351C113.95 13.811 113.899 13.6898 113.816 13.4679C113.207 19.8186 112.608 26.056 112.01 32.2926L112.009 32.2933ZM121.943 9.15768C123.311 10.4382 124.63 11.6719 125.979 12.934C127.019 10.5956 128.032 8.31606 129.084 5.95146C126.658 7.04052 124.331 8.08563 121.943 9.15768ZM119.73 8.48481C118.47 6.4343 117.239 4.43129 115.958 2.34959C115.398 4.75248 114.861 7.05966 114.311 9.4186C116.153 9.10095 117.917 8.79749 119.73 8.48481H119.73Z" fill="white"/>
<path d="M105.001 42.4556L110.41 34.2578L111.559 34.406L111.988 36.4615L112.352 38.2071L112.534 39.0799L111.657 39.2607L109.901 39.623L110.266 41.3687L110.447 42.2415L109.57 42.4223L107.815 42.7846L106.059 43.1469L105 42.4556H105.001ZM108.511 41.731L109.389 41.5502L109.201 40.6859L109.207 40.6774L108.843 38.9317L110.598 38.5694L111.476 38.3886L111.288 37.5243L111.294 37.5158L110.929 35.7702L106.757 42.0933L108.512 41.731H108.511Z" fill="white"/>
<path d="M113.91 41.4629L113.025 41.6593L112.141 41.8557L112.338 42.7356L112.536 43.6155L111.651 43.8119L110.766 44.0083L110.324 44.1068L110.225 43.6672L110.028 42.7873L109.83 41.9074L110.715 41.711L111.6 41.5146L111.402 40.6347L111.205 39.7548L111.647 39.6562L111.746 40.0958L111.943 40.9758L112.042 41.4154L112.484 41.3168L113.369 41.1204L113.811 41.0218L113.91 41.4614V41.4629ZM111.261 42.0556L111.257 42.0528L110.372 42.2492L110.569 43.1291L110.669 43.5687L111.111 43.4701L111.995 43.2737L111.798 42.3938L111.801 42.3896L111.699 41.9542L111.262 42.0549L111.261 42.0556Z" fill="white"/>
<path d="M120.275 44.6511L116.69 50.0022L115.442 49.1754L125.004 34.9062L126.251 35.733M125.056 37.5169L121.471 42.8679L125.056 37.5169Z" fill="white"/>
<path d="M134.122 47.4058L133.875 26.3037L135.339 25.7266L138.587 28.898L141.265 31.5115L142.603 32.8183L141.289 34.1498L138.662 36.8122H138.641L137.348 38.1438L138.687 39.4505L141.364 42.064L142.703 43.3707L141.389 44.7023L138.712 42.0888L136.034 39.4753L136.109 47.3888L134.122 47.4072V47.4058ZM138.637 34.1739L139.951 32.8424L138.612 31.5562V31.5356L135.935 28.9222L136.01 36.8356L138.637 34.1732L138.637 34.1739Z" fill="white"/>
<path d="M145.103 38.313L142.426 35.6995L139.749 33.0861L142.376 30.4237L145.004 27.7612L146.318 26.4297L147.657 27.7364L150.334 30.3499L153.011 32.9634L150.383 35.6258L147.755 38.2882L146.442 39.702M147.71 35.6506H147.731L150.358 32.9882L147.681 30.3747L146.342 29.068L145.029 30.3995L142.401 33.0619L145.078 35.6754V35.696L146.417 36.9822L147.71 35.6513V35.6506Z" fill="white"/>
<path d="M162.45 46.4512L160.424 44.4568L158.399 42.4622L157.386 41.4646L158.389 40.4571L160.394 38.4428L162.4 36.4284L164.405 34.4141L165.418 35.4117L164.415 36.4192L162.41 38.4336L160.404 40.4479H160.389L159.402 41.4554L160.415 42.453L162.44 44.4475L164.466 46.442L165.479 47.4396L164.476 48.4472L162.45 46.4527L162.45 46.4512Z" fill="white"/>
<path d="M159.043 47.5048L156.554 45.0537L154.064 42.6026L152.819 41.3767L154.052 40.1387L156.517 37.6628L158.981 35.1869L161.446 32.7109L162.691 33.9369L161.458 35.1748L158.993 37.6507L156.529 40.1267H156.509L155.296 41.3646L156.541 42.5906L159.03 45.0417L161.52 47.4928L162.765 48.7187L161.532 49.9566L159.043 47.5055L159.043 47.5048Z" fill="white"/>
<path d="M153.618 37.4799L153.463 16.3771L155.499 16.3672L158.164 18.992L160.83 21.6168L162.163 22.9292L160.843 24.2544L158.204 26.9055H158.183L156.884 28.2307L158.216 29.5431L160.882 32.1679L162.215 33.4803L160.895 34.8055L158.229 32.1806L155.564 29.5558L155.604 37.4693L153.617 37.4792L153.618 37.4799ZM158.19 24.2679L159.51 22.9427L158.177 21.6509V21.6303L155.512 19.0055L155.552 26.9189L158.191 24.2679H158.19Z" fill="white"/>
<path d="M147.132 32.926L146.35 32.1484L145.568 32.926L146.35 33.7036L147.132 32.926Z" fill="white"/>
<path d="M148.026 46.0239L145.349 43.4105L142.672 40.797L145.3 38.1346L147.928 35.4722L149.242 34.1406L150.581 35.4474L153.258 38.0608L155.935 40.6743L153.307 43.3367L150.679 45.9991L149.366 47.4129M150.634 43.3615H150.654L153.282 40.6991L150.605 38.0857L149.266 36.7789L147.952 38.1105L145.324 40.7729L148.002 43.3864V43.4069L149.34 44.6931L150.634 43.3622V43.3615Z" fill="white"/>
<path d="M150.055 40.637L149.273 39.8594L148.491 40.637L149.273 41.4146L150.055 40.637Z" fill="white"/>
</g>
</svg>
