<svg width="72" height="51" viewBox="0 0 72 51" fill="none" xmlns="http://www.w3.org/2000/svg">
    <rect width="72" height="51" rx="3" fill="#43B969"/>
    <g clip-path="url(#clip0_4549_26298)">
        <path d="M41.8049 30.3752L36.7499 27.3752V20.5802C36.7499 19.9802 36.2699 19.5002 35.6699 19.5002H35.5799C34.9799 19.5002 34.4999 19.9802 34.4999 20.5802V27.6602C34.4999 28.1852 34.7699 28.6802 35.2349 28.9502L40.7099 32.2352C41.2199 32.5352 41.8799 32.3852 42.1799 31.8752C42.4949 31.3502 42.3299 30.6752 41.8049 30.3752ZM49.7699 15.0152L45.1499 11.1752C44.5199 10.6502 43.5749 10.7252 43.0349 11.3702C42.5099 12.0002 42.5999 12.9452 43.2299 13.4852L47.8349 17.3252C48.4649 17.8502 49.4099 17.7752 49.9499 17.1302C50.4899 16.5002 50.3999 15.5552 49.7699 15.0152ZM24.1499 17.3252L28.7549 13.4852C29.3999 12.9452 29.4899 12.0002 28.9499 11.3702C28.4249 10.7252 27.4799 10.6502 26.8499 11.1752L22.2299 15.0152C21.5999 15.5552 21.5099 16.5002 22.0499 17.1302C22.5749 17.7752 23.5199 17.8502 24.1499 17.3252ZM35.9999 13.5002C28.5449 13.5002 22.4999 19.5452 22.4999 27.0002C22.4999 34.4552 28.5449 40.5002 35.9999 40.5002C43.4549 40.5002 49.4999 34.4552 49.4999 27.0002C49.4999 19.5452 43.4549 13.5002 35.9999 13.5002ZM35.9999 37.5002C30.2099 37.5002 25.4999 32.7902 25.4999 27.0002C25.4999 21.2102 30.2099 16.5002 35.9999 16.5002C41.7899 16.5002 46.4999 21.2102 46.4999 27.0002C46.4999 32.7902 41.7899 37.5002 35.9999 37.5002Z" fill="white"/>
    </g>
    <defs>
        <clipPath id="clip0_4549_26298">
            <rect width="36" height="36" fill="white" transform="translate(18 7.5)"/>
        </clipPath>
    </defs>
</svg>
