<svg width="50" height="50" viewBox="0 0 50 50" fill="none" xmlns="http://www.w3.org/2000/svg">
<g clip-path="url(#clip0_2002_418)">
<g clip-path="url(#clip1_2002_418)">
<g clip-path="url(#clip2_2002_418)">
<mask id="mask0_2002_418" style="mask-type:luminance" maskUnits="userSpaceOnUse" x="0" y="0" width="50" height="50">
<path d="M50 0H0V50H50V0Z" fill="white"/>
</mask>
<g mask="url(#mask0_2002_418)">
<path d="M25 50C38.807 50 50 38.807 50 25C50 11.193 38.807 0 25 0C11.193 0 0 11.193 0 25C0 38.807 11.193 50 25 50Z" fill="#ffffffff"/>
<path d="M33.6959 25C33.6959 27.1739 29.8027 32.6087 25.0003 32.6087C20.1979 32.6087 16.3047 27.1739 16.3047 25C16.3047 20.1975 20.1979 16.3044 25.0003 16.3044C29.8027 16.3044 33.6959 20.1975 33.6959 25Z" fill="#D80027"/>
<path d="M33.6959 25C33.6959 29.8025 29.8027 33.6956 25.0003 33.6956C20.1979 33.6956 16.3047 29.8025 16.3047 25" fill="#0052B4"/>
<path d="M34.215 32.684L36.5204 30.3785L38.0574 31.9155L35.7519 34.2209L34.215 32.684ZM30.3715 36.5265L32.6769 34.2211L34.2139 35.758L31.9085 38.0635L30.3715 36.5265ZM38.8262 37.2945L41.1316 34.9892L42.6685 36.5262L40.3632 38.8315L38.8262 37.2945ZM34.9828 41.1377L37.2882 38.8323L38.8252 40.3692L36.5198 42.6747L34.9828 41.1377ZM36.5205 34.9895L38.8259 32.6841L40.3629 34.221L38.0574 36.5265L36.5205 34.9895ZM32.678 38.8319L34.9835 36.5266L36.5204 38.0635L34.215 40.3689L32.678 38.8319ZM38.8364 17.3159L32.6886 11.1682L34.2256 9.63116L40.3733 15.779L38.8364 17.3159ZM32.6874 15.7796L30.382 13.4742L31.9189 11.9373L34.2243 14.2427L32.6874 15.7796ZM36.5298 19.623L34.2244 17.3175L35.7613 15.7807L38.0667 18.086L36.5298 19.623ZM37.2978 11.168L34.9924 8.86246L36.5294 7.32556L38.8347 9.63086L37.2978 11.168ZM41.1423 15.0117L38.8369 12.7064L40.3738 11.1693L42.6793 13.4748L41.1423 15.0117ZM8.86133 34.9857L15.0092 41.1334L13.4722 42.6704L7.32443 36.5226L8.86133 34.9857ZM15.0089 36.5214L17.3142 38.8268L15.7773 40.3637L13.472 38.0583L15.0089 36.5214ZM11.1661 32.6798L13.4716 34.9852L11.9346 36.5221L9.62923 34.2167L11.1661 32.6798ZM13.4719 30.3736L19.6196 36.5216L18.0826 38.0585L11.9349 31.9108L13.4719 30.3736ZM15.0085 8.85756L8.86073 15.0054L7.32373 13.4684L13.4716 7.32056L15.0085 8.85756ZM17.314 11.1627L11.1661 17.3106L9.62923 15.7735L15.7769 9.62576L17.314 11.1627ZM19.6216 13.4695L13.4737 19.6174L11.9368 18.0805L18.0847 11.9326L19.6216 13.4695Z" fill="#3C3C3C"/>
</g>
</g>
</g>
</g>
<defs>
<clipPath id="clip0_2002_418">
<rect width="50" height="50" fill="white"/>
</clipPath>
<clipPath id="clip1_2002_418">
<rect width="50" height="50" fill="white"/>
</clipPath>
<clipPath id="clip2_2002_418">
<rect width="50" height="50" fill="white"/>
</clipPath>
</defs>
</svg>
