<svg width="31" height="24" viewBox="0 0 31 24" fill="none" xmlns="http://www.w3.org/2000/svg">
<path d="M22.8845 17.7201C20.6765 19.0072 17.988 19.7202 15.212 19.7549C6.17033 19.7549 1.00366 11.8529 1.00366 11.8529C2.61036 9.56321 4.83879 7.56275 7.53949 5.98571M12.4995 4.18801C13.3886 4.02887 14.2989 3.94931 15.212 3.95095C24.2537 3.95095 29.4203 11.8529 29.4203 11.8529C28.6363 12.9746 27.7012 14.0307 26.6303 15.0038M17.9503 13.947C17.5955 14.2381 17.1677 14.4716 16.6924 14.6335C16.2171 14.7955 15.704 14.8826 15.1837 14.8896C14.6634 14.8967 14.1466 14.8235 13.6641 14.6744C13.1816 14.5254 12.7433 14.3036 12.3753 14.0222C12.0073 13.7407 11.7173 13.4056 11.5224 13.0366C11.3275 12.6677 11.2318 12.2724 11.2409 11.8745C11.2501 11.4766 11.364 11.0843 11.5758 10.7208C11.7876 10.3574 12.0929 10.0302 12.4737 9.75888" stroke="white" stroke-width="2.00724" stroke-linecap="round" stroke-linejoin="round"/>
<path d="M1.00366 0.987793L29.4203 22.7182" stroke="white" stroke-width="2.00724" stroke-linecap="round" stroke-linejoin="round"/>
</svg>
