<svg width="72" height="51" viewBox="0 0 72 51" fill="none" xmlns="http://www.w3.org/2000/svg">
    <rect width="72" height="51" rx="3" fill="#B4E3C3"/>
    <path d="M32.0061 39.878C29.5396 39.5398 29.1775 34.4217 28.7886 32.5711C28.5819 31.5874 28.2296 30.6094 27.7691 29.7178C27.3901 28.9838 26.8656 28.3291 26.5049 27.5859H45.4801L44.1597 29.8296C42.8026 32.313 43.1183 35.269 42.0095 37.8389C41.6551 38.6588 40.9492 39.7451 39.9789 39.878H39.4733C37.982 39.3865 37.4539 37.3854 37.1432 36.0059C36.9175 35.0046 36.8696 33.9464 36.639 32.974C36.5582 32.6337 36.2066 31.3673 35.7446 31.9678C35.211 32.6604 35.0654 35.0208 34.8432 36.0059C34.5318 37.3861 34.0051 39.3879 32.5131 39.878C32.3521 39.8632 32.1622 39.8991 32.0061 39.878Z" fill="white"/>
    <path d="M46.2544 25.8365H25.7302C25.3983 25.2367 24.9701 24.6932 24.6425 24.0899C23.0337 21.1269 22.8171 17.3287 24.6291 14.403C27.0774 10.4507 32.2826 10.405 35.9684 12.6023C36.0921 12.6107 37.0182 12.0742 37.246 11.9751C43.4173 9.28281 49.0753 13.1345 48.6232 19.8698C48.4763 22.0628 47.4729 24.0632 46.2544 25.8365Z" fill="white"/>
</svg>
